<svg width="88" height="109" viewBox="0 0 88 109" fill="none" xmlns="http://www.w3.org/2000/svg">
<circle cx="42.7383" cy="65.396" r="42.7383" fill="#F3F6FC"/>
<rect x="30.6979" y="23.7001" width="47.2345" height="66.3813" rx="7" transform="rotate(2.5 30.6979 23.7001)" fill="white" stroke="#E0E5F0" stroke-width="2"/>
<rect x="1.58448" y="19.0899" width="51.2345" height="70.3813" rx="9" transform="rotate(-7.5 1.58448 19.0899)" fill="white" stroke="#E0E5F0" stroke-width="2"/>
<path d="M3.75068 27.8824C3.17398 23.5019 6.25755 19.4833 10.638 18.9066L43.5882 14.5686C47.9687 13.9919 51.9873 17.0755 52.564 21.456L53.5727 29.1176L4.75934 35.544L3.75068 27.8824Z" fill="#F3F6FC"/>
<rect x="62.1355" y="15.5753" width="2.05144" height="6.83813" rx="1.02572" transform="rotate(82.5 62.1355 15.5753)" fill="#E0E5F0"/>
<rect x="43.4013" y="4.24744" width="2.05144" height="6.83813" rx="1.02572" transform="rotate(-7.5 43.4013 4.24744)" fill="#E0E5F0"/>
<rect x="55.4212" y="6.11365" width="2.05144" height="6.83813" rx="1.02572" transform="rotate(37.5 55.4212 6.11365)" fill="#E0E5F0"/>
<rect x="9.86209" y="37.631" width="39.6612" height="2.73525" rx="1.36763" transform="rotate(-7.5 9.86209 37.631)" fill="#F3F6FC"/>
<rect x="11.6472" y="51.1902" width="39.6612" height="2.73525" rx="1.36763" transform="rotate(-7.5 11.6472 51.1902)" fill="#F3F6FC"/>
<rect x="13.4323" y="64.7494" width="39.6612" height="2.73525" rx="1.36763" transform="rotate(-7.5 13.4323 64.7494)" fill="#F3F6FC"/>
<rect x="10.5761" y="43.0547" width="14.3601" height="2.73525" rx="1.36763" transform="rotate(-7.5 10.5761 43.0547)" fill="#F3F6FC"/>
<rect x="12.3613" y="56.6139" width="14.3601" height="2.73525" rx="1.36763" transform="rotate(-7.5 12.3613 56.6139)" fill="#F3F6FC"/>
<rect x="14.1464" y="70.1732" width="14.3601" height="2.73525" rx="1.36763" transform="rotate(-7.5 14.1464 70.1732)" fill="#F3F6FC"/>
</svg>
